<?xml version="1.0" encoding="utf-8"?>
<!-- Generated by IcoMoon.io -->
<!DOCTYPE svg PUBLIC "-//W3C//DTD SVG 1.1//EN" "http://www.w3.org/Graphics/SVG/1.1/DTD/svg11.dtd">
<svg version="1.1" xmlns="http://www.w3.org/2000/svg" xmlns:xlink="http://www.w3.org/1999/xlink" width="51" height="48" viewBox="0 0 51 48">
<path fill="#757568" d="M25.714 0l25.714 10.286v3.429h-3.429c0 0.938-0.83 1.714-1.848 1.714h-40.875c-1.018 0-1.848-0.777-1.848-1.714h-3.429v-3.429zM6.857 17.143h6.857v20.571h3.429v-20.571h6.857v20.571h3.429v-20.571h6.857v20.571h3.429v-20.571h6.857v20.571h1.58c1.018 0 1.848 0.777 1.848 1.714v1.714h-44.571v-1.714c0-0.938 0.83-1.714 1.848-1.714h1.58v-20.571zM49.58 42.857c1.018 0 1.848 0.777 1.848 1.714v3.429h-51.429v-3.429c0-0.938 0.83-1.714 1.848-1.714h47.732z"></path>
</svg>
