<?xml version="1.0" encoding="utf-8"?>
<!-- Generated by IcoMoon.io -->
<!DOCTYPE svg PUBLIC "-//W3C//DTD SVG 1.1//EN" "http://www.w3.org/Graphics/SVG/1.1/DTD/svg11.dtd">
<svg version="1.1" xmlns="http://www.w3.org/2000/svg" xmlns:xlink="http://www.w3.org/1999/xlink" width="48" height="48" viewBox="0 0 48 48">
<path fill="#757568" d="M39 9v-6h-30v6h-9v6c0 4.971 4.029 9 9 9 0.941 0 1.848-0.145 2.701-0.413 2.164 3.094 5.466 5.334 9.299 6.112v9.3h-3c-3.314 0-6 2.686-6 6h24c0-3.314-2.686-6-6-6h-3v-9.3c3.833-0.778 7.135-3.018 9.299-6.112 0.853 0.268 1.76 0.413 2.701 0.413 4.971 0 9-4.029 9-9v-6h-9zM9 20.438c-2.998 0-5.438-2.439-5.438-5.438v-3h5.438v3c0 1.884 0.348 3.686 0.982 5.347-0.319 0.058-0.647 0.091-0.982 0.091zM44.438 15c0 2.998-2.439 5.438-5.438 5.438-0.335 0-0.663-0.032-0.982-0.091 0.634-1.661 0.982-3.463 0.982-5.347v-3h5.438v3z"></path>
</svg>
